<svg width="224" height="52" viewBox="0 0 224 52" fill="none" xmlns="http://www.w3.org/2000/svg">
<g filter="url(#filter0_d_244_23)">
<path d="M63.424 37.32C61.3973 37.32 59.6587 36.9893 58.208 36.328C56.7787 35.6667 55.6587 34.696 54.848 33.416C54.0587 32.136 53.6213 30.5467 53.536 28.648C53.5147 27.7733 53.504 26.8347 53.504 25.832C53.504 24.8293 53.5147 23.8693 53.536 22.952C53.6213 21.096 54.0693 19.528 54.88 18.248C55.6907 16.9467 56.8213 15.9653 58.272 15.304C59.7227 14.6213 61.44 14.28 63.424 14.28C64.832 14.28 66.1333 14.4613 67.328 14.824C68.5227 15.1653 69.568 15.6773 70.464 16.36C71.36 17.0213 72.0533 17.832 72.544 18.792C73.056 19.7307 73.3227 20.7973 73.344 21.992C73.3653 22.184 73.3013 22.344 73.152 22.472C73.024 22.6 72.864 22.664 72.672 22.664H68.352C68.0747 22.664 67.8613 22.6107 67.712 22.504C67.5627 22.376 67.4347 22.152 67.328 21.832C67.0293 20.7013 66.5387 19.9333 65.856 19.528C65.1947 19.1013 64.3733 18.888 63.392 18.888C62.2187 18.888 61.2907 19.2187 60.608 19.88C59.9253 20.52 59.552 21.5973 59.488 23.112C59.424 24.8613 59.424 26.6533 59.488 28.488C59.552 30.0027 59.9253 31.0907 60.608 31.752C61.2907 32.392 62.2187 32.712 63.392 32.712C64.3733 32.712 65.2053 32.4987 65.888 32.072C66.5707 31.6453 67.0507 30.8773 67.328 29.768C67.4133 29.448 67.5307 29.2347 67.68 29.128C67.8507 29 68.0747 28.936 68.352 28.936H72.672C72.864 28.936 73.024 29 73.152 29.128C73.3013 29.256 73.3653 29.416 73.344 29.608C73.3227 30.8027 73.056 31.88 72.544 32.84C72.0533 33.7787 71.36 34.5893 70.464 35.272C69.568 35.9333 68.5227 36.4453 67.328 36.808C66.1333 37.1493 64.832 37.32 63.424 37.32ZM81.3488 37.32C80.1968 37.32 79.1621 37.1067 78.2448 36.68C77.3488 36.232 76.6341 35.6347 76.1008 34.888C75.5674 34.1413 75.3008 33.2987 75.3008 32.36C75.3008 30.8453 75.9194 29.6507 77.1568 28.776C78.3941 27.88 80.0368 27.272 82.0848 26.952L86.0848 26.344V25.896C86.0848 25.128 85.9248 24.5413 85.6048 24.136C85.2848 23.7307 84.6981 23.528 83.8448 23.528C83.2474 23.528 82.7568 23.6453 82.3728 23.88C82.0101 24.1147 81.7221 24.4347 81.5088 24.84C81.3168 25.1173 81.0501 25.256 80.7088 25.256H77.1248C76.8901 25.256 76.7088 25.192 76.5807 25.064C76.4528 24.9147 76.3994 24.744 76.4208 24.552C76.4208 24.168 76.5594 23.7307 76.8368 23.24C77.1354 22.728 77.5834 22.2267 78.1808 21.736C78.7781 21.2453 79.5461 20.84 80.4848 20.52C81.4234 20.2 82.5541 20.04 83.8767 20.04C85.2634 20.04 86.4474 20.2 87.4288 20.52C88.4101 20.84 89.1994 21.288 89.7968 21.864C90.4154 22.44 90.8741 23.1227 91.1728 23.912C91.4714 24.68 91.6208 25.5333 91.6208 26.472V36.2C91.6208 36.4347 91.5354 36.6267 91.3647 36.776C91.2154 36.9253 91.0341 37 90.8208 37H87.1088C86.8741 37 86.6821 36.9253 86.5328 36.776C86.3834 36.6267 86.3088 36.4347 86.3088 36.2V35.08C86.0314 35.4853 85.6581 35.8587 85.1888 36.2C84.7194 36.5413 84.1648 36.808 83.5248 37C82.9061 37.2133 82.1808 37.32 81.3488 37.32ZM82.8528 33.672C83.4714 33.672 84.0261 33.544 84.5168 33.288C85.0288 33.0107 85.4234 32.5947 85.7008 32.04C85.9994 31.464 86.1488 30.7493 86.1488 29.896V29.448L83.4288 29.928C82.4261 30.0987 81.6901 30.3653 81.2208 30.728C80.7728 31.0693 80.5488 31.4747 80.5488 31.944C80.5488 32.3067 80.6554 32.616 80.8688 32.872C81.0821 33.128 81.3594 33.3307 81.7008 33.48C82.0421 33.608 82.4261 33.672 82.8528 33.672ZM96.0318 37C95.7971 37 95.6051 36.9253 95.4557 36.776C95.3064 36.6267 95.2318 36.4347 95.2318 36.2V15.08C95.2318 14.8453 95.3064 14.6533 95.4557 14.504C95.6051 14.3547 95.7971 14.28 96.0318 14.28H99.8078C100.042 14.28 100.234 14.3547 100.384 14.504C100.533 14.6533 100.608 14.8453 100.608 15.08V36.2C100.608 36.4347 100.533 36.6267 100.384 36.776C100.234 36.9253 100.042 37 99.8078 37H96.0318ZM112.036 37.32C110.457 37.32 109.06 37.032 107.844 36.456C106.628 35.88 105.657 35.048 104.932 33.96C104.228 32.8507 103.844 31.528 103.78 29.992C103.759 29.6507 103.748 29.224 103.748 28.712C103.748 28.1787 103.759 27.7413 103.78 27.4C103.844 25.8427 104.228 24.52 104.932 23.432C105.636 22.3227 106.596 21.48 107.812 20.904C109.049 20.328 110.457 20.04 112.036 20.04C113.508 20.04 114.767 20.2533 115.812 20.68C116.857 21.0853 117.711 21.5973 118.372 22.216C119.033 22.8347 119.524 23.4747 119.844 24.136C120.185 24.776 120.367 25.3413 120.388 25.832C120.409 26.0453 120.335 26.2373 120.164 26.408C119.993 26.5573 119.801 26.632 119.588 26.632H115.524C115.289 26.632 115.108 26.5787 114.98 26.472C114.852 26.3653 114.735 26.2053 114.628 25.992C114.372 25.3307 114.041 24.8613 113.636 24.584C113.252 24.3067 112.751 24.168 112.132 24.168C111.279 24.168 110.617 24.4453 110.148 25C109.7 25.5547 109.455 26.408 109.412 27.56C109.391 28.4133 109.391 29.1707 109.412 29.832C109.455 31.0053 109.7 31.8587 110.148 32.392C110.617 32.9253 111.279 33.192 112.132 33.192C112.793 33.192 113.316 33.0533 113.7 32.776C114.084 32.4987 114.393 32.0293 114.628 31.368C114.735 31.1547 114.852 30.9947 114.98 30.888C115.108 30.7813 115.289 30.728 115.524 30.728H119.588C119.801 30.728 119.993 30.8133 120.164 30.984C120.335 31.1333 120.409 31.3147 120.388 31.528C120.367 31.8907 120.26 32.3173 120.068 32.808C119.876 33.2773 119.577 33.7787 119.172 34.312C118.767 34.8453 118.233 35.3467 117.572 35.816C116.932 36.264 116.153 36.6267 115.236 36.904C114.319 37.1813 113.252 37.32 112.036 37.32ZM129.375 37.32C128.159 37.32 127.071 37.0427 126.111 36.488C125.172 35.9333 124.436 35.1227 123.903 34.056C123.37 32.968 123.103 31.6453 123.103 30.088V21.16C123.103 20.9253 123.178 20.7333 123.327 20.584C123.476 20.4347 123.668 20.36 123.903 20.36H127.903C128.138 20.36 128.33 20.4347 128.479 20.584C128.628 20.7333 128.703 20.9253 128.703 21.16V29.896C128.703 31.9867 129.642 33.032 131.519 33.032C132.394 33.032 133.087 32.7653 133.599 32.232C134.132 31.6773 134.399 30.8987 134.399 29.896V21.16C134.399 20.9253 134.474 20.7333 134.623 20.584C134.772 20.4347 134.964 20.36 135.199 20.36H139.199C139.434 20.36 139.626 20.4347 139.775 20.584C139.924 20.7333 139.999 20.9253 139.999 21.16V36.2C139.999 36.4347 139.924 36.6267 139.775 36.776C139.626 36.9253 139.434 37 139.199 37H135.487C135.274 37 135.082 36.9253 134.911 36.776C134.762 36.6267 134.687 36.4347 134.687 36.2V34.984C134.132 35.752 133.407 36.3387 132.511 36.744C131.636 37.128 130.591 37.32 129.375 37.32ZM144.563 37C144.328 37 144.136 36.9253 143.987 36.776C143.838 36.6267 143.763 36.4347 143.763 36.2V15.08C143.763 14.8453 143.838 14.6533 143.987 14.504C144.136 14.3547 144.328 14.28 144.563 14.28H148.339C148.574 14.28 148.766 14.3547 148.915 14.504C149.064 14.6533 149.139 14.8453 149.139 15.08V36.2C149.139 36.4347 149.064 36.6267 148.915 36.776C148.766 36.9253 148.574 37 148.339 37H144.563ZM157.911 37.32C156.759 37.32 155.725 37.1067 154.807 36.68C153.911 36.232 153.197 35.6347 152.663 34.888C152.13 34.1413 151.863 33.2987 151.863 32.36C151.863 30.8453 152.482 29.6507 153.719 28.776C154.957 27.88 156.599 27.272 158.647 26.952L162.647 26.344V25.896C162.647 25.128 162.487 24.5413 162.167 24.136C161.847 23.7307 161.261 23.528 160.407 23.528C159.81 23.528 159.319 23.6453 158.935 23.88C158.573 24.1147 158.285 24.4347 158.071 24.84C157.879 25.1173 157.613 25.256 157.271 25.256H153.687C153.453 25.256 153.271 25.192 153.143 25.064C153.015 24.9147 152.962 24.744 152.983 24.552C152.983 24.168 153.122 23.7307 153.399 23.24C153.698 22.728 154.146 22.2267 154.743 21.736C155.341 21.2453 156.109 20.84 157.047 20.52C157.986 20.2 159.117 20.04 160.439 20.04C161.826 20.04 163.01 20.2 163.991 20.52C164.973 20.84 165.762 21.288 166.359 21.864C166.978 22.44 167.437 23.1227 167.735 23.912C168.034 24.68 168.183 25.5333 168.183 26.472V36.2C168.183 36.4347 168.098 36.6267 167.927 36.776C167.778 36.9253 167.597 37 167.383 37H163.671C163.437 37 163.245 36.9253 163.095 36.776C162.946 36.6267 162.871 36.4347 162.871 36.2V35.08C162.594 35.4853 162.221 35.8587 161.751 36.2C161.282 36.5413 160.727 36.808 160.087 37C159.469 37.2133 158.743 37.32 157.911 37.32ZM159.415 33.672C160.034 33.672 160.589 33.544 161.079 33.288C161.591 33.0107 161.986 32.5947 162.263 32.04C162.562 31.464 162.711 30.7493 162.711 29.896V29.448L159.991 29.928C158.989 30.0987 158.253 30.3653 157.783 30.728C157.335 31.0693 157.111 31.4747 157.111 31.944C157.111 32.3067 157.218 32.616 157.431 32.872C157.645 33.128 157.922 33.3307 158.263 33.48C158.605 33.608 158.989 33.672 159.415 33.672ZM180.181 37C178.816 37 177.632 36.7867 176.629 36.36C175.648 35.912 174.891 35.2293 174.357 34.312C173.824 33.3733 173.557 32.168 173.557 30.696V24.552H171.061C170.827 24.552 170.624 24.4773 170.453 24.328C170.304 24.1787 170.229 23.9867 170.229 23.752V21.16C170.229 20.9253 170.304 20.7333 170.453 20.584C170.624 20.4347 170.827 20.36 171.061 20.36H173.557V15.08C173.557 14.8453 173.632 14.6533 173.781 14.504C173.952 14.3547 174.144 14.28 174.357 14.28H178.069C178.304 14.28 178.496 14.3547 178.645 14.504C178.795 14.6533 178.869 14.8453 178.869 15.08V20.36H182.869C183.104 20.36 183.296 20.4347 183.445 20.584C183.595 20.7333 183.669 20.9253 183.669 21.16V23.752C183.669 23.9867 183.595 24.1787 183.445 24.328C183.296 24.4773 183.104 24.552 182.869 24.552H178.869V30.248C178.869 30.9733 179.008 31.5493 179.285 31.976C179.563 32.4027 180.032 32.616 180.693 32.616H183.157C183.392 32.616 183.584 32.6907 183.733 32.84C183.883 32.9893 183.957 33.1813 183.957 33.416V36.2C183.957 36.4347 183.883 36.6267 183.733 36.776C183.584 36.9253 183.392 37 183.157 37H180.181ZM194.479 37.32C192.687 37.32 191.172 37.032 189.935 36.456C188.719 35.88 187.78 35.0587 187.119 33.992C186.479 32.904 186.116 31.6133 186.031 30.12C186.009 29.6933 185.999 29.2133 185.999 28.68C185.999 28.1253 186.009 27.6453 186.031 27.24C186.116 25.7253 186.5 24.4347 187.183 23.368C187.865 22.3013 188.815 21.48 190.031 20.904C191.268 20.328 192.751 20.04 194.479 20.04C196.228 20.04 197.711 20.328 198.927 20.904C200.164 21.48 201.124 22.3013 201.807 23.368C202.489 24.4347 202.873 25.7253 202.959 27.24C202.98 27.6453 202.991 28.1253 202.991 28.68C202.991 29.2133 202.98 29.6933 202.959 30.12C202.873 31.6133 202.5 32.904 201.839 33.992C201.199 35.0587 200.26 35.88 199.023 36.456C197.807 37.032 196.292 37.32 194.479 37.32ZM194.479 33.416C195.439 33.416 196.132 33.128 196.559 32.552C197.007 31.976 197.263 31.112 197.327 29.96C197.348 29.64 197.359 29.2133 197.359 28.68C197.359 28.1467 197.348 27.72 197.327 27.4C197.263 26.2693 197.007 25.416 196.559 24.84C196.132 24.2427 195.439 23.944 194.479 23.944C193.54 23.944 192.847 24.2427 192.399 24.84C191.951 25.416 191.705 26.2693 191.663 27.4C191.641 27.72 191.631 28.1467 191.631 28.68C191.631 29.2133 191.641 29.64 191.663 29.96C191.705 31.112 191.951 31.976 192.399 32.552C192.847 33.128 193.54 33.416 194.479 33.416ZM206.938 37C206.703 37 206.511 36.9253 206.362 36.776C206.213 36.6267 206.138 36.4347 206.138 36.2V21.16C206.138 20.9467 206.213 20.7653 206.362 20.616C206.511 20.4453 206.703 20.36 206.938 20.36H210.618C210.853 20.36 211.045 20.4453 211.194 20.616C211.343 20.7653 211.418 20.9467 211.418 21.16V22.44C211.994 21.7787 212.677 21.2667 213.466 20.904C214.277 20.5413 215.183 20.36 216.186 20.36H217.594C217.807 20.36 217.989 20.4347 218.138 20.584C218.309 20.7333 218.394 20.9253 218.394 21.16V24.456C218.394 24.6693 218.309 24.8613 218.138 25.032C217.989 25.1813 217.807 25.256 217.594 25.256H214.49C213.615 25.256 212.933 25.5013 212.442 25.992C211.973 26.4613 211.738 27.1333 211.738 28.008V36.2C211.738 36.4347 211.653 36.6267 211.482 36.776C211.333 36.9253 211.141 37 210.906 37H206.938Z" fill="#EBEBEB"/>
</g>
<path d="M40.2707 4.83249H11.2758C10.4214 4.83249 9.60192 5.17191 8.99774 5.77609C8.39356 6.38027 8.05414 7.19971 8.05414 8.05415V43.4924C8.05414 44.3469 8.39356 45.1663 8.99774 45.7705C9.60192 46.3747 10.4214 46.7141 11.2758 46.7141H40.2707C41.1252 46.7141 41.9446 46.3747 42.5488 45.7705C43.153 45.1663 43.4924 44.3469 43.4924 43.4924V8.05415C43.4924 7.19971 43.153 6.38027 42.5488 5.77609C41.9446 5.17191 41.1252 4.83249 40.2707 4.83249ZM17.7191 40.2708C17.2412 40.2708 16.7741 40.129 16.3767 39.8635C15.9794 39.598 15.6697 39.2207 15.4868 38.7792C15.3039 38.3377 15.2561 37.8518 15.3493 37.3831C15.4425 36.9144 15.6727 36.4839 16.0106 36.146C16.3485 35.808 16.779 35.5779 17.2477 35.4847C17.7164 35.3915 18.2023 35.4393 18.6438 35.6222C19.0853 35.8051 19.4627 36.1148 19.7282 36.5121C19.9937 36.9095 20.1354 37.3766 20.1354 37.8545C20.1354 38.4953 19.8808 39.1099 19.4277 39.5631C18.9745 40.0162 18.3599 40.2708 17.7191 40.2708ZM17.7191 32.2166C17.2412 32.2166 16.7741 32.0749 16.3767 31.8094C15.9794 31.5439 15.6697 31.1665 15.4868 30.725C15.3039 30.2835 15.2561 29.7977 15.3493 29.329C15.4425 28.8603 15.6727 28.4297 16.0106 28.0918C16.3485 27.7539 16.779 27.5238 17.2477 27.4305C17.7164 27.3373 18.2023 27.3852 18.6438 27.568C19.0853 27.7509 19.4627 28.0606 19.7282 28.458C19.9937 28.8553 20.1354 29.3225 20.1354 29.8004C20.1354 30.4412 19.8808 31.0558 19.4277 31.5089C18.9745 31.962 18.3599 32.2166 17.7191 32.2166ZM25.7733 40.2708C25.2954 40.2708 24.8282 40.129 24.4309 39.8635C24.0335 39.598 23.7238 39.2207 23.541 38.7792C23.3581 38.3377 23.3102 37.8518 23.4035 37.3831C23.4967 36.9144 23.7268 36.4839 24.0647 36.146C24.4026 35.808 24.8332 35.5779 25.3019 35.4847C25.7706 35.3915 26.2564 35.4393 26.6979 35.6222C27.1394 35.8051 27.5168 36.1148 27.7823 36.5121C28.0478 36.9095 28.1895 37.3766 28.1895 37.8545C28.1895 38.4953 27.9349 39.1099 27.4818 39.5631C27.0287 40.0162 26.4141 40.2708 25.7733 40.2708ZM25.7733 32.2166C25.2954 32.2166 24.8282 32.0749 24.4309 31.8094C24.0335 31.5439 23.7238 31.1665 23.541 30.725C23.3581 30.2835 23.3102 29.7977 23.4035 29.329C23.4967 28.8603 23.7268 28.4297 24.0647 28.0918C24.4026 27.7539 24.8332 27.5238 25.3019 27.4305C25.7706 27.3373 26.2564 27.3852 26.6979 27.568C27.1394 27.7509 27.5168 28.0606 27.7823 28.458C28.0478 28.8553 28.1895 29.3225 28.1895 29.8004C28.1895 30.4412 27.9349 31.0558 27.4818 31.5089C27.0287 31.962 26.4141 32.2166 25.7733 32.2166ZM33.8274 40.2708C33.3495 40.2708 32.8824 40.129 32.485 39.8635C32.0877 39.598 31.778 39.2207 31.5951 38.7792C31.4122 38.3377 31.3644 37.8518 31.4576 37.3831C31.5508 36.9144 31.781 36.4839 32.1189 36.146C32.4568 35.808 32.8873 35.5779 33.356 35.4847C33.8247 35.3915 34.3106 35.4393 34.7521 35.6222C35.1936 35.8051 35.571 36.1148 35.8365 36.5121C36.102 36.9095 36.2437 37.3766 36.2437 37.8545C36.2437 38.4953 35.9891 39.1099 35.536 39.5631C35.0828 40.0162 34.4683 40.2708 33.8274 40.2708ZM33.8274 32.2166C33.3495 32.2166 32.8824 32.0749 32.485 31.8094C32.0877 31.5439 31.778 31.1665 31.5951 30.725C31.4122 30.2835 31.3644 29.7977 31.4576 29.329C31.5508 28.8603 31.781 28.4297 32.1189 28.0918C32.4568 27.7539 32.8873 27.5238 33.356 27.4305C33.8247 27.3373 34.3106 27.3852 34.7521 27.568C35.1936 27.7509 35.571 28.0606 35.8365 28.458C36.102 28.8553 36.2437 29.3225 36.2437 29.8004C36.2437 30.4412 35.9891 31.0558 35.536 31.5089C35.0828 31.962 34.4683 32.2166 33.8274 32.2166ZM37.0491 20.9408C37.0491 21.368 36.8794 21.7777 36.5773 22.0798C36.2752 22.3819 35.8655 22.5516 35.4383 22.5516H16.1083C15.6811 22.5516 15.2714 22.3819 14.9693 22.0798C14.6672 21.7777 14.4975 21.368 14.4975 20.9408V12.8866C14.4975 12.4594 14.6672 12.0497 14.9693 11.7476C15.2714 11.4455 15.6811 11.2758 16.1083 11.2758H35.4383C35.8655 11.2758 36.2752 11.4455 36.5773 11.7476C36.8794 12.0497 37.0491 12.4594 37.0491 12.8866V20.9408Z" fill="#9B6EE9"/>
<defs>
<filter id="filter0_d_244_23" x="48.504" y="9.28" width="174.89" height="33.04" filterUnits="userSpaceOnUse" color-interpolation-filters="sRGB">
<feFlood flood-opacity="0" result="BackgroundImageFix"/>
<feColorMatrix in="SourceAlpha" type="matrix" values="0 0 0 0 0 0 0 0 0 0 0 0 0 0 0 0 0 0 127 0" result="hardAlpha"/>
<feOffset/>
<feGaussianBlur stdDeviation="2.5"/>
<feComposite in2="hardAlpha" operator="out"/>
<feColorMatrix type="matrix" values="0 0 0 0 0 0 0 0 0 0 0 0 0 0 0 0 0 0 1 0"/>
<feBlend mode="normal" in2="BackgroundImageFix" result="effect1_dropShadow_244_23"/>
<feBlend mode="normal" in="SourceGraphic" in2="effect1_dropShadow_244_23" result="shape"/>
</filter>
</defs>
</svg>
